<svg width="194" height="64" viewBox="0 0 194 64" fill="none" xmlns="http://www.w3.org/2000/svg">
<path fill-rule="evenodd" clip-rule="evenodd" d="M0 15.515L15.1982 0H116.585V64H0V15.515Z" fill="#FFDE89"/>
<path d="M15.5151 15.5152L15.5152 2.71276e-06L-2.71276e-06 15.5152L15.5151 15.5152Z" fill="#E1BC5B"/>
<path d="M102.562 32.1207H106.325V34.1731H106.382C106.781 33.4319 107.266 32.8429 107.836 32.4058C108.406 31.9497 109.099 31.7217 109.917 31.7217C110.031 31.7217 110.145 31.7312 110.259 31.7502C110.392 31.7502 110.515 31.7597 110.629 31.7787V35.5413C110.42 35.5223 110.211 35.5128 110.002 35.5128C109.812 35.4938 109.612 35.4843 109.403 35.4843C109.061 35.4843 108.719 35.5318 108.377 35.6268C108.035 35.7218 107.722 35.8833 107.437 36.1114C107.152 36.3204 106.924 36.6054 106.753 36.9665C106.581 37.3085 106.496 37.7361 106.496 38.2492V47.4561H102.562V32.1207Z" fill="#1E033A"/>
<path d="M96.5695 39.8236C96.3034 40.0326 96.0184 40.2036 95.7144 40.3367C95.4103 40.4507 95.1348 40.5362 94.8877 40.5932C94.0896 40.7642 93.5195 41.0493 93.1775 41.4483C92.8354 41.8474 92.6644 42.389 92.6644 43.0731C92.6644 43.6622 92.7784 44.1658 93.0064 44.5838C93.2345 45.0019 93.6145 45.2109 94.1466 45.2109C94.4126 45.2109 94.6882 45.1729 94.9732 45.0969C95.2583 45.0019 95.5148 44.8594 95.7429 44.6693C95.9899 44.4793 96.1894 44.2323 96.3414 43.9282C96.4935 43.6242 96.5695 43.2631 96.5695 42.8451V39.8236ZM89.3864 36.8591V36.4886C89.3864 35.5954 89.5289 34.8543 89.8139 34.2652C90.099 33.6571 90.479 33.1726 90.9541 32.8115C91.4482 32.4314 92.0183 32.1654 92.6644 32.0134C93.3295 31.8423 94.0326 31.7568 94.7737 31.7568C95.9519 31.7568 96.902 31.8709 97.6241 32.0989C98.3463 32.3269 98.9068 32.65 99.3059 33.068C99.705 33.4861 99.971 33.9897 100.104 34.5788C100.256 35.1489 100.332 35.776 100.332 36.4601V44.5268C100.332 45.2489 100.361 45.8095 100.418 46.2086C100.494 46.6076 100.627 47.0352 100.817 47.4913H97.0541C96.921 47.2442 96.8165 46.9877 96.7405 46.7217C96.6835 46.4366 96.6265 46.1611 96.5695 45.895H96.5125C96.0564 46.6932 95.5243 47.2157 94.9162 47.4628C94.3271 47.6908 93.5575 47.8048 92.6074 47.8048C91.9233 47.8048 91.3437 47.6908 90.8686 47.4628C90.3935 47.2157 90.0135 46.8832 89.7284 46.4651C89.4434 46.0471 89.2343 45.5815 89.1013 45.0684C88.9683 44.5363 88.9018 44.0137 88.9018 43.5007C88.9018 42.7785 88.9778 42.161 89.1298 41.6479C89.2819 41.1158 89.5099 40.6692 89.8139 40.3082C90.137 39.9281 90.536 39.6146 91.0111 39.3675C91.5052 39.1205 92.0943 38.9019 92.7784 38.7119L95.0017 38.1133C95.5908 37.9613 95.9994 37.7523 96.2274 37.4862C96.4555 37.2202 96.5695 36.8306 96.5695 36.3175C96.5695 35.7285 96.427 35.2724 96.1419 34.9493C95.8759 34.6073 95.4103 34.4363 94.7452 34.4363C94.1371 34.4363 93.681 34.6168 93.377 34.9778C93.0729 35.3389 92.9209 35.8235 92.9209 36.4316V36.8591H89.3864Z" fill="#1E033A"/>
<path d="M83.9619 38.0848C83.9429 37.4957 83.9048 36.9826 83.8478 36.5456C83.7908 36.0895 83.6863 35.7094 83.5343 35.4054C83.4013 35.0824 83.2017 34.8448 82.9357 34.6928C82.6887 34.5218 82.3656 34.4363 81.9665 34.4363C81.5675 34.4363 81.2349 34.5313 80.9689 34.7213C80.7219 34.8923 80.5223 35.1299 80.3703 35.4339C80.2183 35.719 80.1043 36.042 80.0283 36.4031C79.9712 36.7641 79.9427 37.1252 79.9427 37.4862V38.0848H83.9619ZM79.9427 40.4222V41.6479C79.9427 42.1039 79.9712 42.5505 80.0283 42.9876C80.1043 43.4056 80.2183 43.7857 80.3703 44.1278C80.5223 44.4508 80.7219 44.7168 80.9689 44.9259C81.2159 45.1159 81.52 45.2109 81.881 45.2109C82.5461 45.2109 83.0307 44.9734 83.3348 44.4983C83.6388 44.0232 83.8478 43.3011 83.9619 42.332H87.4964C87.4204 44.1183 86.9453 45.477 86.0712 46.4081C85.1971 47.3393 83.8193 47.8048 81.938 47.8048C80.5128 47.8048 79.4011 47.5673 78.603 47.0922C77.8049 46.6171 77.2158 45.99 76.8358 45.2109C76.4557 44.4318 76.2182 43.5577 76.1231 42.5885C76.0471 41.6194 76.0091 40.6502 76.0091 39.6811C76.0091 38.6549 76.0756 37.6668 76.2087 36.7166C76.3607 35.7665 76.6457 34.9208 77.0638 34.1797C77.5009 33.4386 78.1185 32.8495 78.9166 32.4124C79.7147 31.9754 80.7789 31.7568 82.1091 31.7568C83.2492 31.7568 84.1804 31.9469 84.9025 32.3269C85.6436 32.688 86.2232 33.2106 86.6413 33.8947C87.0593 34.5598 87.3444 35.3769 87.4964 36.346C87.6484 37.2962 87.7244 38.3604 87.7244 39.5385V40.4222H79.9427Z" fill="#1E033A"/>
<path d="M70.2548 27.1387H74.1884V47.4908H70.2548V27.1387Z" fill="#1E033A"/>
<path d="M64.1035 34.0089C64.1035 32.5266 63.923 31.453 63.5619 30.7879C63.2199 30.1038 62.5833 29.7617 61.6521 29.7617C61.139 29.7617 60.7115 29.9042 60.3694 30.1893C60.0464 30.4553 59.7898 30.9019 59.5998 31.529C59.4098 32.1371 59.2768 32.9447 59.2007 33.9519C59.1247 34.94 59.0867 36.1562 59.0867 37.6004C59.0867 39.1397 59.1342 40.3843 59.2292 41.3345C59.3433 42.2846 59.5048 43.0258 59.7138 43.5578C59.9419 44.0709 60.2174 44.4225 60.5404 44.6125C60.8825 44.7835 61.2721 44.869 61.7091 44.869C62.0702 44.869 62.4027 44.812 62.7068 44.698C63.0298 44.565 63.3054 44.318 63.5334 43.9569C63.7615 43.5768 63.942 43.0543 64.075 42.3892C64.208 41.7051 64.2745 40.8119 64.2745 39.7097H68.3792C68.3792 40.8119 68.2937 41.8571 68.1226 42.8452C67.9516 43.8334 67.6285 44.698 67.1535 45.4391C66.6974 46.1802 66.0418 46.7598 65.1867 47.1779C64.3505 47.596 63.2579 47.805 61.9087 47.805C60.3694 47.805 59.1437 47.558 58.2316 47.0639C57.3194 46.5698 56.6163 45.8572 56.1223 44.9261C55.6472 43.9949 55.3336 42.8832 55.1816 41.591C55.0486 40.2988 54.9821 38.8736 54.9821 37.3154C54.9821 35.7761 55.0486 34.3604 55.1816 33.0682C55.3336 31.757 55.6472 30.6358 56.1223 29.7047C56.6163 28.7735 57.3194 28.0514 58.2316 27.5384C59.1437 27.0063 60.3694 26.7402 61.9087 26.7402C63.3719 26.7402 64.5216 26.9778 65.3577 27.4528C66.2128 27.9279 66.8494 28.536 67.2675 29.2771C67.6856 29.9992 67.9421 30.7879 68.0371 31.643C68.1511 32.4791 68.2081 33.2677 68.2081 34.0089H64.1035Z" fill="#1E033A"/>
<path d="M49.0702 27.1387H53.0038V47.4908H49.0702V27.1387Z" fill="#1E033A"/>
<path d="M42.7574 39.8236C42.4914 40.0326 42.2063 40.2036 41.9023 40.3367C41.5982 40.4507 41.3227 40.5362 41.0757 40.5932C40.2775 40.7642 39.7074 41.0493 39.3654 41.4483C39.0233 41.8474 38.8523 42.389 38.8523 43.0731C38.8523 43.6622 38.9663 44.1658 39.1944 44.5838C39.4224 45.0019 39.8025 45.2109 40.3345 45.2109C40.6006 45.2109 40.8761 45.1729 41.1612 45.0969C41.4462 45.0019 41.7027 44.8594 41.9308 44.6693C42.1778 44.4793 42.3774 44.2323 42.5294 43.9282C42.6814 43.6242 42.7574 43.2631 42.7574 42.8451V39.8236ZM35.5743 36.8591V36.4886C35.5743 35.5954 35.7168 34.8543 36.0019 34.2652C36.2869 33.6571 36.667 33.1726 37.142 32.8115C37.6361 32.4314 38.2062 32.1654 38.8523 32.0134C39.5174 31.8423 40.2205 31.7568 40.9616 31.7568C42.1398 31.7568 43.09 31.8709 43.8121 32.0989C44.5342 32.3269 45.0948 32.65 45.4938 33.068C45.8929 33.4861 46.1589 33.9897 46.292 34.5788C46.444 35.1489 46.52 35.776 46.52 36.4601V44.5268C46.52 45.2489 46.5485 45.8095 46.6055 46.2086C46.6815 46.6076 46.8145 47.0352 47.0046 47.4913H43.242C43.109 47.2442 43.0045 46.9877 42.9284 46.7217C42.8714 46.4366 42.8144 46.1611 42.7574 45.895H42.7004C42.2443 46.6932 41.7122 47.2157 41.1042 47.4628C40.5151 47.6908 39.7454 47.8048 38.7953 47.8048C38.1112 47.8048 37.5316 47.6908 37.0565 47.4628C36.5815 47.2157 36.2014 46.8832 35.9164 46.4651C35.6313 46.0471 35.4223 45.5815 35.2893 45.0684C35.1562 44.5363 35.0897 44.0137 35.0897 43.5007C35.0897 42.7785 35.1657 42.161 35.3178 41.6479C35.4698 41.1158 35.6978 40.6692 36.0019 40.3082C36.3249 39.9281 36.724 39.6146 37.199 39.3675C37.6931 39.1205 38.2822 38.9019 38.9663 38.7119L41.1897 38.1133C41.7788 37.9613 42.1873 37.7523 42.4154 37.4862C42.6434 37.2202 42.7574 36.8306 42.7574 36.3175C42.7574 35.7285 42.6149 35.2724 42.3298 34.9493C42.0638 34.6073 41.5982 34.4363 40.9331 34.4363C40.325 34.4363 39.869 34.6168 39.5649 34.9778C39.2609 35.3389 39.1088 35.8235 39.1088 36.4316V36.8591H35.5743Z" fill="#1E033A"/>
<path d="M30.1498 38.0848C30.1308 37.4957 30.0928 36.9826 30.0358 36.5456C29.9788 36.0895 29.8742 35.7094 29.7222 35.4054C29.5892 35.0824 29.3897 34.8448 29.1236 34.6928C28.8766 34.5218 28.5535 34.4363 28.1545 34.4363C27.7554 34.4363 27.4229 34.5313 27.1568 34.7213C26.9098 34.8923 26.7103 35.1299 26.5582 35.4339C26.4062 35.719 26.2922 36.042 26.2162 36.4031C26.1592 36.7641 26.1307 37.1252 26.1307 37.4862V38.0848H30.1498ZM26.1307 40.4222V41.6479C26.1307 42.1039 26.1592 42.5505 26.2162 42.9876C26.2922 43.4056 26.4062 43.7857 26.5582 44.1278C26.7103 44.4508 26.9098 44.7168 27.1568 44.9259C27.4039 45.1159 27.7079 45.2109 28.069 45.2109C28.7341 45.2109 29.2186 44.9734 29.5227 44.4983C29.8267 44.0232 30.0358 43.3011 30.1498 42.332H33.6843C33.6083 44.1183 33.1332 45.477 32.2591 46.4081C31.385 47.3393 30.0073 47.8048 28.126 47.8048C26.7008 47.8048 25.5891 47.5673 24.791 47.0922C23.9928 46.6171 23.4037 45.99 23.0237 45.2109C22.6436 44.4318 22.4061 43.5577 22.3111 42.5885C22.2351 41.6194 22.1971 40.6502 22.1971 39.6811C22.1971 38.6549 22.2636 37.6668 22.3966 36.7166C22.5486 35.7665 22.8337 34.9208 23.2517 34.1797C23.6888 33.4386 24.3064 32.8495 25.1045 32.4124C25.9026 31.9754 26.9668 31.7568 28.297 31.7568C29.4372 31.7568 30.3683 31.9469 31.0904 32.3269C31.8315 32.688 32.4111 33.2106 32.8292 33.8947C33.2473 34.5598 33.5323 35.3769 33.6843 36.346C33.8364 37.2962 33.9124 38.3604 33.9124 39.5385V40.4222H26.1307Z" fill="#1E033A"/>
<path d="M7.50745 27.1387H15.0896C16.7999 27.1387 18.1301 27.5757 19.0802 28.4499C20.0304 29.305 20.5055 30.6162 20.5055 32.3835C20.5055 33.7517 20.2299 34.8729 19.6788 35.747C19.1277 36.6021 18.2726 37.1532 17.1134 37.4003V37.4573C18.1396 37.6093 18.8902 37.9418 19.3653 38.4549C19.8404 38.968 20.1349 39.7946 20.2489 40.9348C20.2869 41.3149 20.3154 41.7329 20.3344 42.189C20.3534 42.6261 20.3724 43.1202 20.3914 43.6712C20.4295 44.7544 20.4865 45.581 20.5625 46.1511C20.6765 46.7212 20.9235 47.1108 21.3036 47.3198V47.4908H16.8569C16.6479 47.2058 16.5148 46.8827 16.4578 46.5217C16.4008 46.1416 16.3628 45.7521 16.3438 45.353L16.2298 41.4479C16.1918 40.6498 15.9923 40.0227 15.6312 39.5666C15.2702 39.1105 14.6621 38.8825 13.8069 38.8825H11.6121V47.4908H7.50745V27.1387ZM11.6121 36.0321H13.3223C14.3105 36.0321 15.0706 35.804 15.6027 35.3479C16.1348 34.8729 16.4008 34.0842 16.4008 32.9821C16.4008 31.1008 15.4507 30.1601 13.5504 30.1601H11.6121V36.0321Z" fill="#1E033A"/>
<path d="M185.692 40.397C185.692 40.9291 185.711 41.4327 185.749 41.9078C185.806 42.3828 185.901 42.8104 186.034 43.1905C186.186 43.5515 186.385 43.8461 186.632 44.0741C186.898 44.2831 187.241 44.3876 187.659 44.3876C188.077 44.3876 188.419 44.2831 188.685 44.0741C188.97 43.8461 189.188 43.542 189.34 43.162C189.511 42.7819 189.625 42.3258 189.682 41.7937C189.758 41.2427 189.796 40.6441 189.796 39.998C189.796 38.1357 189.644 36.815 189.34 36.0359C189.055 35.2567 188.523 34.8672 187.744 34.8672C187.307 34.8672 186.955 34.9622 186.689 35.1522C186.423 35.3422 186.214 35.6558 186.062 36.0929C185.91 36.5109 185.806 37.081 185.749 37.8031C185.711 38.5062 185.692 39.3709 185.692 40.397ZM193.559 32.2448V46.8105C193.559 48.7868 193.065 50.2691 192.077 51.2572C191.108 52.2454 189.473 52.7394 187.174 52.7394C185.502 52.7394 184.21 52.3784 183.297 51.6563C182.404 50.9532 181.958 49.946 181.958 48.6348H185.72C185.72 49.1289 185.92 49.5184 186.319 49.8035C186.509 49.9365 186.708 50.041 186.917 50.117C187.146 50.1931 187.383 50.2311 187.63 50.2311C188.428 50.2311 188.989 49.9745 189.312 49.4614C189.635 48.9484 189.796 48.3118 189.796 47.5516V45.5278H189.739C189.34 46.0979 188.846 46.554 188.257 46.896C187.687 47.2381 187.089 47.4091 186.461 47.4091C184.903 47.4091 183.725 46.82 182.927 45.6418C182.148 44.4447 181.758 42.4493 181.758 39.6559C181.758 38.7628 181.806 37.8506 181.901 36.9195C182.015 35.9883 182.233 35.1522 182.556 34.4111C182.898 33.651 183.383 33.0334 184.01 32.5583C184.656 32.0832 185.511 31.8457 186.575 31.8457C187.127 31.8457 187.697 31.9977 188.286 32.3018C188.875 32.6058 189.359 33.1569 189.739 33.955H189.796V32.2448H193.559Z" fill="#1E033A"/>
<path d="M168.358 32.2448H172.12V34.0405H172.177C172.595 33.2804 173.137 32.7293 173.802 32.3873C174.467 32.0262 175.227 31.8457 176.082 31.8457C177.337 31.8457 178.296 32.1878 178.961 32.8719C179.646 33.556 179.988 34.6676 179.988 36.2069V47.5801H176.054V37.005C176.054 36.2069 175.921 35.6558 175.655 35.3517C175.389 35.0287 174.961 34.8672 174.372 34.8672C172.985 34.8672 172.291 35.7128 172.291 37.4041V47.5801H168.358V32.2448Z" fill="#1E033A"/>
<path d="M162.109 27.001H166.042V30.3645H162.109V27.001ZM162.109 32.2458H166.042V47.5812H162.109V32.2458Z" fill="#1E033A"/>
<path d="M155.697 27.2061H159.63V47.5582H155.697V27.2061Z" fill="#1E033A"/>
<path d="M149.288 27.2061H153.222V47.5582H149.288V27.2061Z" fill="#1E033A"/>
<path d="M139.566 39.8905C139.566 40.6696 139.585 41.3918 139.623 42.0569C139.661 42.722 139.746 43.292 139.879 43.7671C140.031 44.2422 140.25 44.6128 140.535 44.8788C140.82 45.1448 141.2 45.2779 141.675 45.2779C142.473 45.2779 143.024 44.8598 143.328 44.0237C143.632 43.1875 143.784 41.8098 143.784 39.8905C143.784 37.9712 143.632 36.5935 143.328 35.7574C143.024 34.9212 142.473 34.5032 141.675 34.5032C141.2 34.5032 140.82 34.6362 140.535 34.9022C140.25 35.1683 140.031 35.5388 139.879 36.0139C139.746 36.489 139.661 37.0591 139.623 37.7242C139.585 38.3893 139.566 39.1114 139.566 39.8905ZM135.632 39.8905C135.632 38.5793 135.737 37.4201 135.946 36.413C136.155 35.4058 136.497 34.5697 136.972 33.9046C137.447 33.2205 138.065 32.7074 138.825 32.3653C139.604 32.0043 140.554 31.8238 141.675 31.8238C142.853 31.8048 143.832 31.9663 144.611 32.3083C145.39 32.6314 146.008 33.135 146.464 33.8191C146.92 34.5032 147.243 35.3488 147.433 36.356C147.623 37.3631 147.718 38.5413 147.718 39.8905C147.718 41.2017 147.614 42.3609 147.404 43.3681C147.195 44.3752 146.853 45.2208 146.378 45.905C145.903 46.5701 145.276 47.0641 144.497 47.3872C143.737 47.7102 142.796 47.8718 141.675 47.8718C140.497 47.8908 139.518 47.7482 138.739 47.4442C137.96 47.1211 137.342 46.6271 136.886 45.962C136.43 45.2779 136.107 44.4322 135.917 43.4251C135.727 42.3989 135.632 41.2207 135.632 39.8905Z" fill="#1E033A"/>
<path d="M126.751 36.413H128.575C129.392 36.413 130.048 36.1659 130.542 35.6719C131.055 35.1778 131.312 34.4082 131.312 33.363C131.312 32.3369 131.093 31.5577 130.656 31.0256C130.219 30.4936 129.487 30.2275 128.461 30.2275H126.751V36.413ZM122.646 27.2061H129.829C130.875 27.2061 131.749 27.3866 132.452 27.7476C133.174 28.0897 133.753 28.5458 134.191 29.1159C134.628 29.6859 134.941 30.3415 135.131 31.0827C135.321 31.8048 135.416 32.5459 135.416 33.306C135.416 34.3512 135.255 35.2633 134.932 36.0424C134.628 36.8215 134.191 37.4581 133.62 37.9522C133.069 38.4463 132.395 38.8169 131.597 39.0639C130.799 39.3109 129.915 39.4345 128.946 39.4345H126.751V47.5582H122.646V27.2061Z" fill="#1E033A"/>
</svg>
